# AST/ASF file generated using VICON BodyLanguage
# -----------------------------------------------
:version 1.10
:name VICON
:units
  mass 1.0
  length 0.45
  angle deg
:documentation
   .ast/.asf automatically generated from VICON data using
   VICON BodyBuilder and BodyLanguage model FoxedUp or BRILLIANT.MOD
:root
   order TX TY TZ RX RY RZ
   axis XYZ
   position 0 0 0  
   orientation 0 0 0 
:bonedata
  begin
     id 1 
     name lhipjoint
     direction 0.635376 -0.686425 0.353719 
     length 2.47244 
     axis 0 0 0  XYZ
  end
  begin
     id 2 
     name lfemur
     direction 0.34202 -0.939693 0  
     length 7.25268  
     axis 0 0 20  XYZ
    dof rx ry rz
    limits (-160.0 20.0)
           (-70.0 70.0)
           (-60.0 70.0)
  end
  begin
     id 3 
     name ltibia
     direction 0.34202 -0.939693 0   
     length 7.6767   
     axis 0 0 20   XYZ
    dof rx
    limits (-10.0 170.0)
  end
  begin
     id 4 
     name lfoot
     direction 0.0803374 -0.220725 0.972022   
     length 2.22945   
     axis -90 7.62852e-016 20   XYZ
    dof rx rz
    limits (-45.0 90.0)
           (-70.0 20.0)
  end
  begin
     id 5 
     name ltoes
     direction 1.53579e-011 -4.21994e-011 1   
     length 1.11848   
     axis -90 7.62852e-016 20   XYZ
    dof rx
    limits (-90.0 20.0)
  end
  begin
     id 6 
     name rhipjoint
     direction -0.664428 -0.664335 0.342336   
     length 2.55466  
     axis 0 0 0  XYZ 
  end
  begin
     id 7 
     name rfemur
     direction -0.34202 -0.939693 0   
     length 6.83172   
     axis 0 0 -20   XYZ
    dof rx ry rz
    limits (-160.0 20.0)
           (-70.0 70.0)
           (-70.0 60.0)
  end
  begin
     id 8 
     name rtibia
     direction -0.34202 -0.939693 0   
     length 7.62692   
     axis 0 0 -20   XYZ
    dof rx
    limits (-10.0 170.0)
 end
 begin
     id 9 
     name rfoot
     direction -0.0949276 -0.260811 0.960711   
     length 2.19684  
     axis -90 -7.62852e-016 -20   XYZ
    dof rx rz
    limits (-45.0 90.0)
           (-20.0 70.0)
  end
  begin
     id 10 
     name rtoes
     direction -1.53543e-011 -4.2183e-011 1   
     length 1.09848   
     axis -90 -7.62852e-016 -20   XYZ
    dof rx
    limits (-90.0 20.0)
  end
  begin
     id 11 
     name lowerback
     direction 0.0118782 0.999815 -0.0151555   
     length 2.15772   
     axis 0 0 0   XYZ
    dof rx ry rz
    limits (-20.0 45.0)
           (-30.0 30.0)
           (-30.0 30.0)
  end
  begin
     id 12 
     name upperback
     direction 0.00130825 0.999065 0.0432113   
     length 2.14863   
     axis 0 0 0   XYZ
    dof rx ry rz
    limits (-20.0 45.0)
           (-30.0 30.0)
           (-30.0 30.0)
  end
  begin
     id 13 
     name thorax
     direction -0.00347005 0.998773 0.0494011   
     length 2.14936   
     axis 0 0 0   XYZ
    dof rx ry rz
    limits (-20.0 45.0)
           (-30.0 30.0)
           (-30.0 30.0)
  end
  begin
     id 14 
     name lowerneck
     direction -0.0262159 0.99424 0.103921   
     length 1.69373   
     axis 0 0 0   XYZ
    dof rx ry rz
    limits (-20.0 45.0)
           (-30.0 30.0)
           (-30.0 30.0)
  end
  begin
     id 15 
     name upperneck
     direction 0.0353511 0.977394 -0.20845   
     length 1.70857   
     axis 0 0 0   XYZ
    dof rx ry rz
    limits (-20.0 45.0)
           (-30.0 30.0)
           (-30.0 30.0)
  end
  begin
     id 16
     name head
     direction 0.0139214 0.996594 -0.0812836  
     length 1.72777  
     axis 0 0 0   XYZ
    dof rx ry rz
    limits (-20.0 45.0)
           (-30.0 30.0)
           (-30.0 30.0)
  end
  begin
     id 17 
     name lclavicle
     direction 0.841247 0.537205 -0.0609508  
     length 3.55371  
     axis 0 0 0   XYZ
    dof ry rz
    limits (-20.0 10.0)
           (0.0 20.0)
  end
  begin
     id 18 
     name lhumerus
     direction 1 -4.48964e-011 1.60116e-018   
     length 4.91377   
     axis -180 -30 -90   XYZ
    dof rx ry rz
    limits (-60.0 90.0)
           (-90.0 90.0)
           (-90.0 90.0)
  end
  begin
     id 19
     name lradius
     direction 1 -4.48989e-011 -8.93847e-027   
     length 3.00291   
     axis -180 -30 -90   XYZ
    dof rx
    limits (-10.0 170.0)
  end
  begin
     id 20
     name lwrist
     direction 1 -4.48932e-011 -7.31504e-027   
     length 1.50145   
     axis 5.74121e-015 90 90   XYZ
    dof ry
    limits (-180.0 0.0)
 end
  begin
     id 21 
     name lhand
     direction 1 -4.48971e-011 -1.46301e-026   
     length 0.450922   
     axis 9.33524e-015 90 90   XYZ
    dof rx rz
    limits (-90.0 90.0)
           (-45.0 45.0)
  end
  begin
     id 22 
     name lfingers
     direction 1 -4.49039e-011 -2.92602e-026   
     length 0.363545   
     axis 1.86705e-014 90 90   XYZ
    dof rx
    limits (0.0 90.0)
  end
  begin
     id 23
     name lthumb
     direction 0.707107 -6.34941e-011 0.707107   
     length 0.52198   
     axis -90 45 2.85299e-015   XYZ
    dof rx rz
    limits (-45.0 45.0)
           (-45.0 45.0)
  end
  begin
     id 24 
     name rclavicle
     direction -0.825079 0.56158 -0.0622297   
     length 3.39909  
     axis 0 0 0   XYZ 
    dof ry rz
    limits (-10.0 20.0)
           (-20.0 0.0)
  end
  begin
     id 25 
     name rhumerus
     direction -1 -4.48965e-011 1.61691e-027  
     length 4.86725   
     axis -180 30 90   XYZ
    dof rx ry rz
    limits (-90.0 60.0)
           (-90.0 90.0)
           (-90.0 90.0)
  end
  begin
     id 26 
     name rradius
     direction -1 -4.48964e-011 -2.25776e-027   
     length 3.17144   
     axis -180 30 90   XYZ
    dof rx
    limits (-10.0 170.0)
  end
  begin
     id 27 
     name rwrist
     direction -1 -4.48961e-011 -7.31504e-027   
     length 1.58572   
     axis 5.74121e-015 -90 -90   XYZ
    dof ry
    limits (-180.0 0.0)
  end
  begin
     id 28
     name rhand
     direction -1 -4.49013e-011 -1.46301e-026   
     length 0.419368   
     axis 9.33524e-015 -90 -90   XYZ
    dof rx rz
    limits (-90.0 90.0)
           (-45.0 45.0)
  end
  begin
     id 29
     name rfingers
     direction -1 -4.489e-011 -2.92602e-026   
     length 0.338105   
     axis 1.86705e-014 -90 -90   XYZ
    dof rx
    limits (0.0 90.0)
  end
  begin
     id 30
     name rthumb
     direction -0.707107 -6.35022e-011 0.707107   
     length 0.485453   
     axis -90 -45 -2.85299e-015   XYZ
    dof rx rz
    limits (-45.0 45.0)
           (-45.0 45.0)
  end
:hierarchy
  begin
    root lhipjoint rhipjoint lowerback
    lhipjoint lfemur
    lfemur ltibia
    ltibia lfoot
    lfoot ltoes
    rhipjoint rfemur
    rfemur rtibia
    rtibia rfoot
    rfoot rtoes
    lowerback upperback
    upperback thorax
    thorax lowerneck lclavicle rclavicle
    lowerneck upperneck
    upperneck head
    lclavicle lhumerus
    lhumerus lradius
    lradius lwrist
    lwrist lhand lthumb
    lhand lfingers
    rclavicle rhumerus
    rhumerus rradius
    rradius rwrist
    rwrist rhand rthumb
    rhand rfingers
  end

#!OML:ASF H:\Swim 2\Project 1\Capture day 1\Session 1\male.ASF
:FULLY-SPECIFIED
:DEGREES
913
root 7.61702 10.0539 12.8905 99.1901 -2.63313 4.36194
lowerback -16.8957 -0.961851 0.459062
upperback -11.2587 -1.40067 -1.0451
thorax -2.59765 -0.802666 -1.55484
lowerneck -8.74799 0.210146 -3.7201
upperneck 49.6218 0.989284 1.23926
head 21.8645 -0.170421 1.60391
rclavicle -1.2424e-014 -2.5842e-015
rhumerus 20.1093 -42.6622 2.47149
rradius 35.5825
rwrist -29.5899
rhand 14.1574 1.00645
rfingers 7.12502
rthumb 39.058 -24.497
lclavicle -1.2424e-014 -2.5842e-015
lhumerus 10.1033 10.6929 -14.9386
lradius 37.5134
lwrist 32.1975
lhand -17.1809 -0.109167
lfingers 7.12502
lthumb 9.06077 29.6762
rfemur -24.8843 -12.0291 15.5142
rtibia 109.824
rfoot 34.9238 5.71901
rtoes 21.4675
lfemur -20.6369 -0.888159 -21.7474
ltibia 90.86
lfoot 18.3446 -7.17249
ltoes 39.7726
914
root 7.61933 10.0625 12.9176 99.5674 -2.65351 4.28372
lowerback -17.1042 -0.860393 0.56463
upperback -11.2834 -1.27651 -1.10983
thorax -2.51763 -0.745855 -1.6692
lowerneck -8.19896 0.157301 -3.53762
upperneck 49.0861 0.795096 1.23582
head 21.1442 -0.17932 1.46745
rclavicle 9.93923e-017 -7.20594e-015
rhumerus 23.4442 -41.8968 2.25339
rradius 35.2822
rwrist -28.8415
rhand 14.6122 0.848067
rfingers 7.12502
rthumb 39.4865 -24.5308
lclavicle 9.93923e-017 -7.20594e-015
lhumerus 12.8754 10.5775 -15.8891
lradius 37.8055
lwrist 30.3521
lhand -17.2852 -0.179656
lfingers 7.12502
lthumb 8.9601 29.6101
rfemur -25.0588 -11.2006 16.1592
rtibia 107.376
rfoot 34.1486 4.7978
rtoes 21.5817
lfemur -20.5912 -1.45025 -21.9583
ltibia 87.7808
lfoot 18.6684 -6.39693
ltoes 41.2816
915
root 7.62121 10.071 12.9418 99.947 -2.67443 4.21442
lowerback -17.2708 -0.771342 0.688841
upperback -11.2981 -1.17275 -1.17663
thorax -2.44914 -0.700861 -1.79794
lowerneck -8.13211 0.0995755 -3.31183
upperneck 48.6382 0.655833 1.17305
head 20.7775 -0.187516 1.35644
rclavicle 5.1684e-015 7.95139e-015
rhumerus 26.8179 -41.1955 2.02316
rradius 34.9324
rwrist -28.1155
rhand 15.1069 0.548816
rfingers 7.12502
rthumb 39.9523 -24.6916
lclavicle 5.1684e-015 7.95139e-015
lhumerus 15.6716 10.7121 -16.8939
lradius 37.8083
lwrist 28.797
lhand -17.3063 -0.109729
lfingers 7.12502
lthumb 8.93981 29.6809
rfemur -25.2278 -10.3571 16.7658
rtibia 104.762
rfoot 33.3809 3.79365
rtoes 21.7761
lfemur -20.54 -2.01988 -22.1271
ltibia 84.5475
lfoot 19.0655 -5.7517
ltoes 42.484
916
root 7.62207 10.0781 12.9633 100.331 -2.68913 4.15003
lowerback -17.4086 -0.693061 0.822685
upperback -11.3024 -1.08564 -1.24035
thorax -2.38449 -0.664927 -1.93055
lowerneck -8.04781 0.046711 -3.09564
upperneck 48.1616 0.533698 1.09738
head 20.3929 -0.194061 1.24468
rclavicle 4.07509e-015 6.26172e-015
rhumerus 30.2407 -40.5794 1.73753
rradius 34.5575
rwrist -27.4033
rhand 15.7031 0.169082
rfingers 7.12502
rthumb 40.5131 -24.9001
lclavicle 4.07509e-015 6.26172e-015
lhumerus 18.48 11.1378 -17.8659
lradius 37.6204
lwrist 27.7408
lhand -17.1556 0.0799949
lfingers 7.12502
lthumb 9.0852 29.8643
rfemur -25.3802 -9.49553 17.3407
rtibia 101.984
rfoot 32.6429 2.67264
rtoes 22.0868
lfemur -20.4717 -2.59668 -22.2417
ltibia 81.164
lfoot 19.5324 -5.26749
ltoes 43.3698
917
root 7.62239 10.0841 12.9816 100.709 -2.71435 4.10556
lowerback -17.5127 -0.628278 0.948381
upperback -11.2946 -1.01611 -1.30896
thorax -2.32413 -0.637751 -2.06565
lowerneck -7.94225 -0.00288204 -2.91442
upperneck 47.6561 0.417732 1.0452
head 19.9911 -0.203285 1.15369
rclavicle -1.46107e-014 -9.93923e-015
rhumerus 33.7042 -40.0592 1.35293
rradius 34.1942
rwrist -26.6757
rhand 16.3881 -0.233041
rfingers 7.12502
rthumb 41.1566 -25.0994
lclavicle -1.46107e-014 -9.93923e-015
lhumerus 21.3036 11.8822 -18.7096
lradius 37.3307
lwrist 27.2359
lhand -16.7993 0.391962
lfingers 7.12502
lthumb 9.42898 30.161
rfemur -25.4998 -8.64321 17.8509
rtibia 99.0538
rfoot 31.9295 1.47916
rtoes 22.4487
lfemur -20.3787 -3.20474 -22.3259
ltibia 77.638
lfoot 20.0451 -4.94689
ltoes 43.9466
918
root 7.62211 10.0885 12.997 101.082 -2.74164 4.07877
lowerback -17.5741 -0.571358 1.05275
upperback -11.2836 -0.954086 -1.37591
thorax -2.28174 -0.613163 -2.18727
lowerneck -7.81465 -0.0685232 -2.76007
upperneck 47.1635 0.283974 1.00222
head 19.6041 -0.22443 1.07129
rclavicle 1.45113e-014 -2.78299e-015
rhumerus 37.1923 -39.6241 0.85154
rradius 33.8789
rwrist -25.904
rhand 17.1618 -0.637217
rfingers 7.12502
rthumb 41.8825 -25.2665
lclavicle 1.45113e-014 -2.78299e-015
lhumerus 24.1639 12.9322 -19.324
lradius 36.9961
lwrist 27.2171
lhand -16.2414 0.809468
lfingers 7.12502
lthumb 9.96731 30.5535
rfemur -25.585 -7.79015 18.3092
rtibia 95.9748
rfoot 31.2555 0.212928
rtoes 22.8384
lfemur -20.2604 -3.84194 -22.3739
ltibia 73.9828
lfoot 20.594 -4.74585
ltoes 44.2941
919
root 7.62153 10.0914 13.0095 101.452 -2.7745 4.07409
lowerback -17.5988 -0.520788 1.14189
upperback -11.2673 -0.898254 -1.4527
thorax -2.25236 -0.591198 -2.31101
lowerneck -7.69233 -0.142498 -2.64458
upperneck 46.7141 0.127022 1.01806
head 19.2594 -0.256447 1.02344
rclavicle 1.39149e-015 1.03368e-014
rhumerus 40.6891 -39.2668 0.191478
rradius 33.6423
rwrist -25.0822
rhand 18.0004 -1.0041
rfingers 7.12502
rthumb 42.6679 -25.3664
lclavicle 1.39149e-015 1.03368e-014
lhumerus 27.0843 14.2804 -19.6358
lradius 36.6337
lwrist 27.465
lhand -15.4977 1.28735
lfingers 7.12502
lthumb 10.6847 30.9957
rfemur -25.6409 -6.9374 18.7124
rtibia 92.7558
rfoot 30.5841 -1.03354
rtoes 23.1781
lfemur -20.1272 -4.51403 -22.3919
ltibia 70.2158
lfoot 21.1627 -4.61429
ltoes 44.5164
920
root 7.62087 10.093 13.0194 101.827 -2.82807 4.08124
lowerback -17.5921 -0.473179 1.21073
upperback -11.2441 -0.843192 -1.55117
thorax -2.2314 -0.56911 -2.44588
lowerneck -7.58786 -0.204399 -2.59434
upperneck 46.3069 -0.0460278 1.164
head 18.9567 -0.292739 1.0496
rclavicle -2.98177e-015 1.54058e-015
rhumerus 44.1769 -38.9714 -0.654794
rradius 33.5038
rwrist -24.2389
rhand 18.9008 -1.32932
rfingers 7.12502
rthumb 43.5098 -25.3926
lclavicle -2.98177e-015 1.54058e-015
lhumerus 30.0999 15.8917 -19.5865
lradius 36.2185
lwrist 27.7023
lhand -14.6252 1.7469
lfingers 7.12502
lthumb 11.5262 31.41
rfemur -25.6809 -6.07339 19.04
rtibia 89.4072
rfoot 29.9235 -2.21627
rtoes 23.4557
lfemur -19.9944 -5.21459 -22.4032
ltibia 66.3596
lfoot 21.7378 -4.49821
ltoes 44.6766
921
root 7.62026 10.0931 13.0272 102.219 -2.90157 4.09394
lowerback -17.5734 -0.427485 1.28452
upperback -11.2097 -0.791487 -1.67992
thorax -2.20501 -0.549887 -2.61606
lowerneck -7.50521 -0.246505 -2.59215
upperneck 45.9402 -0.224561 1.4308
head 18.6939 -0.32708 1.14188
rclavicle 2.78299e-015 8.79622e-015
rhumerus 47.6711 -38.7154 -1.72818
rradius 33.4514
rwrist -23.4459
rhand 19.8278 -1.60262
rfingers 7.12502
rthumb 44.3746 -25.3444
lclavicle 2.78299e-015 8.79622e-015
lhumerus 33.2358 17.7141 -19.1398
lradius 35.7137
lwrist 27.6431
lhand -13.6582 2.06852
lfingers 7.12502
lthumb 12.4587 31.6772
rfemur -25.7183 -5.18349 19.2913
rtibia 85.933
rfoot 29.2583 -3.29601
rtoes 23.6358
lfemur -19.8854 -5.94326 -22.4086
ltibia 62.4422
lfoot 22.3153 -4.35049
ltoes 44.8589
922
root 7.61972 10.0914 13.0333 102.641 -2.99101 4.10399
lowerback -17.5621 -0.385849 1.38359
upperback -11.1611 -0.749402 -1.83669
thorax -2.16082 -0.537769 -2.83195
lowerneck -7.43046 -0.314085 -2.47669
upperneck 45.6361 -0.412481 1.56633
head 18.4797 -0.362828 1.14873
rclavicle 1.03368e-014 2.03754e-014
rhumerus 51.2058 -38.465 -3.05342
rradius 33.4471
rwrist -22.826
rhand 20.7568 -1.80634
rfingers 7.12502
rthumb 45.2394 -25.211
lclavicle 1.03368e-014 2.03754e-014
lhumerus 36.5078 19.6793 -18.2689
lradius 35.0874
lwrist 27.056
lhand -12.6908 2.16419
lfingers 7.12502
lthumb 13.3912 31.7138
rfemur -25.7707 -4.25105 19.4682
rtibia 82.3381
rfoot 28.587 -4.23112
rtoes 23.7274
lfemur -19.8282 -6.70021 -22.4039
ltibia 58.5006
lfoot 22.8875 -4.17857
ltoes 45.0437
923
root 7.61941 10.0877 13.038 103.096 -3.10301 4.1045
lowerback -17.5648 -0.351191 1.51272
upperback -11.0948 -0.721817 -2.01822
thorax -2.09208 -0.535312 -3.09379
lowerneck -7.35551 -0.394236 -2.25793
upperneck 45.3651 -0.58736 1.56615
head 18.2888 -0.393669 1.07448
rclavicle 9.93923e-015 9.14409e-015
rhumerus 54.8209 -38.1866 -4.64201
rradius 33.4446
rwrist -22.495
rhand 21.6425 -2.00643
rfingers 7.12502
rthumb 46.062 -25.0751
lclavicle 9.93923e-015 9.14409e-015
lhumerus 39.931 21.7169 -16.9505
lradius 34.3333
lwrist 25.8175
lhand -11.7475 1.959
lfingers 7.12502
lthumb 14.3003 31.4466
rfemur -25.8442 -3.26565 19.556
rtibia 78.6264
rfoot 27.9213 -4.97954
rtoes 23.7096
lfemur -19.842 -7.50025 -22.3967
ltibia 54.5803
lfoot 23.4281 -3.98906
ltoes 45.1963
924
root 7.619 10.0818 13.042 103.601 -3.22395 4.07873
lowerback -17.5966 -0.32437 1.66623
upperback -11.0172 -0.709239 -2.2007
thorax -1.99749 -0.541584 -3.37353
lowerneck -7.25987 -0.49568 -1.90698
upperneck 45.1158 -0.734809 1.34433
head 18.1054 -0.419124 0.876773
rclavicle -1.33186e-014 -7.15625e-015
rhumerus 58.5815 -37.8445 -6.5165
rradius 33.3865
rwrist -22.474
rhand 22.4155 -2.22018
rfingers 7.12502
rthumb 46.7783 -24.9835
lclavicle -1.33186e-014 -7.15625e-015
lhumerus 43.514 23.7489 -15.1491
lradius 33.4765
lwrist 23.9172
lhand -10.8469 1.45844
lfingers 7.12502
lthumb 15.168 30.8825
rfemur -25.9594 -2.20271 19.5639
rtibia 74.798
rfoot 27.2627 -5.56397
rtoes 23.5904
lfemur -19.9644 -8.34455 -22.3681
ltibia 50.7398
lfoot 23.9035 -3.81285
ltoes 45.2453
925
root 7.61901 10.0735 13.0455 104.144 -3.35005 4.03456
lowerback -17.6449 -0.307721 1.83472
upperback -10.9248 -0.713294 -2.36997
thorax -1.87987 -0.556234 -3.65102
lowerneck -7.129 -0.591457 -1.50411
upperneck 44.8498 -0.838595 1.00536
head 17.901 -0.434056 0.623485
rclavicle 1.98785e-015 2.00276e-014
rhumerus 62.498 -37.4077 -8.65656
rradius 33.2371
rwrist -22.6874
rhand 23.0347 -2.44707
rfingers 7.12502
rthumb 47.3509 -24.9571
lclavicle 1.98785e-015 2.00276e-014
lhumerus 47.2711 25.7027 -12.8388
lradius 32.5723
lwrist 21.4871
lhand -10.0235 0.744079
lfingers 7.12502
lthumb 15.961 30.1065
rfemur -26.1024 -1.06837 19.4883
rtibia 70.8545
rfoot 26.6378 -5.96793
rtoes 23.3422
lfemur -20.2081 -9.25162 -22.3102
ltibia 47.048
lfoot 24.2803 -3.69821
ltoes 45.1056
926
root 7.61959 10.0636 13.0488 104.711 -3.47693 3.97094
lowerback -17.6928 -0.292633 1.97539
upperback -10.8217 -0.715052 -2.50724
thorax -1.74952 -0.566302 -3.87872
lowerneck -6.9589 -0.682052 -1.10913
upperneck 44.5697 -0.91118 0.615949
head 17.6781 -0.444714 0.356364
rclavicle -6.55989e-015 -1.03368e-014
rhumerus 66.5132 -36.8495 -10.9881
rradius 32.9938
rwrist -22.9582
rhand 23.515 -2.69221
rfingers 7.12502
rthumb 47.7943 -25.0004
lclavicle -6.55989e-015 -1.03368e-014
lhumerus 51.2162 27.4733 -10.0203
lradius 31.6869
lwrist 18.7875
lhand -9.29683 -0.0973314
lfingers 7.12502
lthumb 16.6607 29.2076
rfemur -26.2669 0.14128 19.328
rtibia 66.8014
rfoot 26.0654 -6.24039
rtoes 23.0248
lfemur -20.5898 -10.221 -22.2152
ltibia 43.5824
lfoot 24.5259 -3.638
ltoes 44.7411
